<svg xmlns="http://www.w3.org/2000/svg" width="600" height="500" viewBox="0 0 600 500" fill="none"><rect width="600" height="500" fill="#f1f6ff"/>
<defs>
<linearGradient id="bg" x1="0" y1="0" x2="1" y2="1"><stop offset="0%" stop-color="#e7f1ff"/><stop offset="100%" stop-color="#ffffff" stop-opacity="0"/></linearGradient>
<linearGradient id="rg" x1="0" y1="0" x2="0" y2="1"><stop offset="0%" stop-color="#0d6efd"/><stop offset="100%" stop-color="#0a58ca"/></linearGradient>
<pattern id="dots" x="0" y="0" width="20" height="20" patternUnits="userSpaceOnUse"><circle cx="2" cy="2" r="1.4" fill="#0d6efd" opacity="0.18"/></pattern>
<filter id="sh" x="-20%" y="-20%" width="140%" height="140%"><feGaussianBlur in="SourceAlpha" stdDeviation="6"/><feOffset dy="6"/><feComponentTransfer><feFuncA type="linear" slope="0.18"/></feComponentTransfer><feMerge><feMergeNode/><feMergeNode in="SourceGraphic"/></feMerge></filter>
</defs>
<circle cx="300" cy="250" r="220" fill="url(#bg)"/>
<rect width="600" height="500" fill="url(#dots)"/>
<circle cx="80" cy="80" r="40" fill="#ffc107" opacity="0.18"/>
<circle cx="540" cy="430" r="50" fill="#dc3545" opacity="0.12"/>
<circle cx="510" cy="90" r="14" fill="#198754" opacity="0.5"/>
<g transform="translate(70,130)"><g transform="rotate(-8 60 75)" filter="url(#sh)">
<rect width="120" height="150" rx="14" fill="#ffffff"/>
<rect width="120" height="34" rx="14" fill="#fff8e1"/>
<rect y="20" width="120" height="14" fill="#fff8e1"/>
<rect x="14" y="48" width="42" height="22" rx="11" fill="#ffc107"/>
<text x="35" y="63" text-anchor="middle" fill="#ffffff" font-family="Inter,sans-serif" font-weight="700" font-size="11">JPG</text>
<rect x="14" y="84" width="92" height="6" rx="3" fill="#e9ecef"/>
<rect x="14" y="98" width="70" height="6" rx="3" fill="#e9ecef"/>
<rect x="14" y="112" width="82" height="6" rx="3" fill="#e9ecef"/>
<rect x="14" y="126" width="56" height="6" rx="3" fill="#e9ecef"/>
</g></g>
<g transform="translate(150,230)"><g transform="rotate(5 60 75)" filter="url(#sh)">
<rect width="120" height="150" rx="14" fill="#ffffff"/>
<rect width="120" height="34" rx="14" fill="#fdecee"/>
<rect y="20" width="120" height="14" fill="#fdecee"/>
<rect x="14" y="48" width="42" height="22" rx="11" fill="#dc3545"/>
<text x="35" y="63" text-anchor="middle" fill="#ffffff" font-family="Inter,sans-serif" font-weight="700" font-size="11">PDF</text>
<rect x="14" y="84" width="92" height="6" rx="3" fill="#e9ecef"/>
<rect x="14" y="98" width="70" height="6" rx="3" fill="#e9ecef"/>
<rect x="14" y="112" width="82" height="6" rx="3" fill="#e9ecef"/>
<rect x="14" y="126" width="56" height="6" rx="3" fill="#e9ecef"/>
</g></g>
<g transform="translate(50,280)"><g transform="rotate(-3 50 65)" filter="url(#sh)">
<rect width="100" height="130" rx="14" fill="#ffffff"/>
<rect width="100" height="34" rx="14" fill="#e6f4ec"/>
<rect y="20" width="100" height="14" fill="#e6f4ec"/>
<rect x="14" y="48" width="42" height="22" rx="11" fill="#198754"/>
<text x="35" y="63" text-anchor="middle" fill="#ffffff" font-family="Inter,sans-serif" font-weight="700" font-size="11">PNG</text>
<rect x="14" y="84" width="72" height="6" rx="3" fill="#e9ecef"/>
<rect x="14" y="98" width="50" height="6" rx="3" fill="#e9ecef"/>
<rect x="14" y="112" width="62" height="6" rx="3" fill="#e9ecef"/>
<rect x="14" y="126" width="36" height="6" rx="3" fill="#e9ecef"/>
</g></g>
<g transform="translate(270,230)"><rect width="80" height="40" rx="20" fill="#0d6efd" opacity="0.1"/><path d="M 12 20 L 60 20 M 50 12 L 60 20 L 50 28" stroke="#0d6efd" stroke-width="3" stroke-linecap="round" stroke-linejoin="round"/></g>
<g transform="translate(360,130)" filter="url(#sh)">
<rect width="180" height="230" rx="20" fill="url(#rg)"/>
<path d="M 150 0 L 180 0 L 180 30 Z" fill="#ffffff" opacity="0.18"/>
<rect x="24" y="40" width="132" height="10" rx="5" fill="#ffffff" opacity="0.25"/>
<rect x="24" y="40" width="50" height="10" rx="5" fill="#ffffff"/>
<text x="24" y="76" fill="#ffffff" font-family="Inter,sans-serif" font-weight="800" font-size="28">85%</text>
<text x="24" y="98" fill="#ffffff" opacity="0.75" font-family="Inter,sans-serif" font-weight="500" font-size="13">lebih kecil</text>
<g transform="translate(24,122)"><rect width="132" height="6" rx="3" fill="#ffffff" opacity="0.25"/><rect width="100" height="6" rx="3" fill="#ffffff" opacity="0.6"/></g>
<g transform="translate(24,138)"><rect width="132" height="6" rx="3" fill="#ffffff" opacity="0.25"/><rect width="80" height="6" rx="3" fill="#ffffff" opacity="0.6"/></g>
<g transform="translate(24,154)"><rect width="132" height="6" rx="3" fill="#ffffff" opacity="0.25"/><rect width="60" height="6" rx="3" fill="#ffffff" opacity="0.6"/></g>
<g transform="translate(132,174)"><circle cx="20" cy="20" r="22" fill="#ffffff"/><circle cx="20" cy="20" r="20" fill="#198754"/><path d="M 11 20 L 17 26 L 29 14" stroke="#ffffff" stroke-width="3.5" stroke-linecap="round" stroke-linejoin="round"/></g>
</g>
<g fill="#0d6efd">
<path d="M 340 102 L 342 108 L 348 110 L 342 112 L 340 118 L 338 112 L 332 110 L 338 108 Z"/>
<path d="M 555 142 L 557 148 L 563 150 L 557 152 L 555 158 L 553 152 L 547 150 L 553 148 Z"/>
<path d="M 420 392 L 422 398 L 428 400 L 422 402 L 420 408 L 418 402 L 412 400 L 418 398 Z"/>
</g>
</svg>