<svg width="300" height="225" viewBox="0 0 320 240" fill="none" data-fg-d2ow69=":0:/src/app/components/ToolIllustrations.tsx:166:5:5745:2091:e:svg:etetxtetxte:1" data-fgid-d2ow69=":rat:" data-fg-callsite-eini66="" xmlns="http://www.w3.org/2000/svg"><defs data-fg-d2ow70=":0:/src/app/components/ToolIllustrations.tsx:167:7:5834:230:e:defs:e"><linearGradient id="ps-bg" x1="0" y1="0" x2="1" y2="1" data-fg-d2ow71=":0:/src/app/components/ToolIllustrations.tsx:168:9:5849:201:e:linearGradient:ete"><stop offset="0%" stop-color="#e6f4ec" data-fg-d2ow72=":0:/src/app/components/ToolIllustrations.tsx:169:11:5915:40:e:stop"/><stop offset="100%" stop-color="#ffffff" stop-opacity="0" data-fg-d2ow73=":0:/src/app/components/ToolIllustrations.tsx:170:11:5966:58:e:stop"/></linearGradient></defs><rect width="320" height="240" fill="url(#ps-bg)" rx="20" data-fg-d2ow74=":0:/src/app/components/ToolIllustrations.tsx:173:7:6071:56:e:rect"/><g transform="translate(80, 40)" data-fg-d2ow76=":0:/src/app/components/ToolIllustrations.tsx:175:7:6171:1302:e:g:etxtetxtetetxtetxtetetete"><rect width="160" height="160" rx="12" fill="#ffffff" stroke="#e9ecef" data-fg-d2ow77=":0:/src/app/components/ToolIllustrations.tsx:176:9:6213:73:e:rect"/><rect x="12" y="12" width="136" height="118" rx="6" fill="#dc3545" opacity="0.85" data-fg-d2ow79=":0:/src/app/components/ToolIllustrations.tsx:178:9:6357:84:e:rect"/><circle cx="80" cy="72" r="22" fill="#fde2c4" data-fg-d2ow81=":0:/src/app/components/ToolIllustrations.tsx:180:9:6484:48:e:circle"/><path d="M 50 130 Q 50 100 80 100 Q 110 100 110 130 Z" fill="#212529" data-fg-d2ow82=":0:/src/app/components/ToolIllustrations.tsx:181:9:6541:100:e:path"/><path d="M 60 60 Q 68 48 80 48 Q 92 48 100 60 Q 100 70 96 72 L 64 72 Q 60 70 60 60 Z" fill="#212529" data-fg-d2ow84=":0:/src/app/components/ToolIllustrations.tsx:186:9:6671:131:e:path"/><rect x="12" y="138" width="60" height="14" rx="7" fill="#198754" data-fg-d2ow86=":0:/src/app/components/ToolIllustrations.tsx:191:9:6840:68:e:rect"/><text x="42" y="148" text-anchor="middle" fill="#ffffff" font-family="Inter, sans-serif" font-weight="700" font-size="9" data-fg-d2ow87=":0:/src/app/components/ToolIllustrations.tsx:192:9:6917:229:e:text:t">3×4 cm</text><rect x="80" y="138" width="60" height="14" rx="7" fill="#0d6efd" data-fg-d2ow89=":0:/src/app/components/ToolIllustrations.tsx:203:9:7155:68:e:rect"/><text x="110" y="148" text-anchor="middle" fill="#ffffff" font-family="Inter, sans-serif" font-weight="700" font-size="9" data-fg-d2ow90=":0:/src/app/components/ToolIllustrations.tsx:204:9:7232:230:e:text:t">4×6 cm</text></g><g stroke="#198754" stroke-width="2.5" fill="none" stroke-linecap="round" data-fg-d2ow93=":0:/src/app/components/ToolIllustrations.tsx:217:7:7514:311:e:g:etetete"><path d="M 70 30 L 70 50 M 70 30 L 90 30" data-fg-d2ow94=":0:/src/app/components/ToolIllustrations.tsx:218:9:7595:44:e:path"/><path d="M 250 30 L 250 50 M 250 30 L 230 30" data-fg-d2ow95=":0:/src/app/components/ToolIllustrations.tsx:219:9:7648:48:e:path"/><path d="M 70 210 L 70 190 M 70 210 L 90 210" data-fg-d2ow96=":0:/src/app/components/ToolIllustrations.tsx:220:9:7705:48:e:path"/><path d="M 250 210 L 250 190 M 250 210 L 230 210" data-fg-d2ow97=":0:/src/app/components/ToolIllustrations.tsx:221:9:7762:52:e:path"/></g></svg>