<svg width="300" height="225" viewBox="0 0 320 240" fill="none" data-fg-d2ow0=":0:/src/app/components/ToolIllustrations.tsx:10:5:205:1813:e:svg:etetxtetxtetxte:1" data-fgid-d2ow0=":rad:" data-fg-callsite-eini62="" xmlns="http://www.w3.org/2000/svg"><defs data-fg-d2ow1=":0:/src/app/components/ToolIllustrations.tsx:11:7:294:230:e:defs:e"><linearGradient id="ph-bg" x1="0" y1="0" x2="1" y2="1" data-fg-d2ow2=":0:/src/app/components/ToolIllustrations.tsx:12:9:309:201:e:linearGradient:ete"><stop offset="0%" stop-color="#fff8e1" data-fg-d2ow3=":0:/src/app/components/ToolIllustrations.tsx:13:11:375:40:e:stop"/><stop offset="100%" stop-color="#ffffff" stop-opacity="0" data-fg-d2ow4=":0:/src/app/components/ToolIllustrations.tsx:14:11:426:58:e:stop"/></linearGradient></defs><rect width="320" height="240" fill="url(#ph-bg)" rx="20" data-fg-d2ow5=":0:/src/app/components/ToolIllustrations.tsx:17:7:531:56:e:rect"/><g transform="translate(60, 50)" filter="url(#sh)" data-fg-d2ow7=":0:/src/app/components/ToolIllustrations.tsx:19:7:619:581:e:g:etetxtetetxtete"><rect width="160" height="140" rx="12" fill="#ffffff" stroke="#e9ecef" data-fg-d2ow8=":0:/src/app/components/ToolIllustrations.tsx:20:9:679:73:e:rect"/><rect x="10" y="10" width="140" height="90" rx="8" fill="#fff3cd" data-fg-d2ow9=":0:/src/app/components/ToolIllustrations.tsx:21:9:761:68:e:rect"/><path d="M 20 96 L 50 60 L 75 80 L 110 50 L 145 96 Z" fill="#ffc107" opacity="0.7" data-fg-d2ow11=":0:/src/app/components/ToolIllustrations.tsx:23:9:868:85:e:path"/><circle cx="125" cy="32" r="10" fill="#ffc107" data-fg-d2ow12=":0:/src/app/components/ToolIllustrations.tsx:24:9:962:49:e:circle"/><rect x="10" y="110" width="80" height="6" rx="3" fill="#e9ecef" data-fg-d2ow14=":0:/src/app/components/ToolIllustrations.tsx:26:9:1046:67:e:rect"/><rect x="10" y="122" width="50" height="6" rx="3" fill="#e9ecef" data-fg-d2ow15=":0:/src/app/components/ToolIllustrations.tsx:27:9:1122:67:e:rect"/></g><g stroke="#ffc107" stroke-width="2.5" stroke-linecap="round" fill="none" data-fg-d2ow17=":0:/src/app/components/ToolIllustrations.tsx:30:7:1247:383:e:g:etetete"><path d="M 30 50 L 50 70 M 50 70 L 42 70 M 50 70 L 50 62" data-fg-d2ow18=":0:/src/app/components/ToolIllustrations.tsx:31:9:1328:60:e:path"/><path d="M 290 50 L 270 70 M 270 70 L 278 70 M 270 70 L 270 62" data-fg-d2ow19=":0:/src/app/components/ToolIllustrations.tsx:32:9:1397:66:e:path"/><path d="M 30 190 L 50 170 M 50 170 L 50 178 M 50 170 L 42 170" data-fg-d2ow20=":0:/src/app/components/ToolIllustrations.tsx:33:9:1472:66:e:path"/><path d="M 290 190 L 270 170 M 270 170 L 270 178 M 270 170 L 278 170" data-fg-d2ow21=":0:/src/app/components/ToolIllustrations.tsx:34:9:1547:72:e:path"/></g><g transform="translate(218, 156)" data-fg-d2ow23=":0:/src/app/components/ToolIllustrations.tsx:37:7:1660:347:e:g:ete"><rect width="78" height="34" rx="17" fill="#ffc107" data-fg-d2ow24=":0:/src/app/components/ToolIllustrations.tsx:38:9:1704:54:e:rect"/><text x="39" y="22" text-anchor="middle" fill="#ffffff" font-family="Inter, sans-serif" font-weight="800" font-size="14" data-fg-d2ow25=":0:/src/app/components/ToolIllustrations.tsx:39:9:1767:229:e:text:t">100 KB</text></g></svg>