<svg width="600" height="500" viewBox="0 0 600 500" preserveAspectRatio="xMidYMid meet" xmlns="http://www.w3.org/2000/svg" fill="none" data-fg-dxia0=":0:/src/app/components/MergePdfPage.tsx:9:5:214:7234:e:svg:etxtetetxtetetetetxtetetetetxtetxtetxtetxte:1" data-fgid-dxia0=":r9q:" data-fg-callsite-dxia146=""><rect width="600" height="500" fill="#ffffff"/><defs data-fg-dxia1=":0:/src/app/components/MergePdfPage.tsx:17:7:403:949:e:defs:etetete"><radialGradient id="mpBg" cx="0.5" cy="0.5" data-fg-dxia2=":0:/src/app/components/MergePdfPage.tsx:18:9:418:190:e:radialGradient:ete"><stop offset="0%" stop-color="#e7f1ff" data-fg-dxia3=":0:/src/app/components/MergePdfPage.tsx:19:11:473:40:e:stop"/><stop offset="100%" stop-color="#ffffff" stop-opacity="0" data-fg-dxia4=":0:/src/app/components/MergePdfPage.tsx:20:11:524:58:e:stop"/></radialGradient><linearGradient id="mpResult" x1="0" y1="0" x2="0" y2="1" data-fg-dxia5=":0:/src/app/components/MergePdfPage.tsx:22:9:617:188:e:linearGradient:ete"><stop offset="0%" stop-color="#dc3545" data-fg-dxia6=":0:/src/app/components/MergePdfPage.tsx:23:11:686:40:e:stop"/><stop offset="100%" stop-color="#a71d2a" data-fg-dxia7=":0:/src/app/components/MergePdfPage.tsx:24:11:737:42:e:stop"/></linearGradient><pattern id="mpDots" width="22" height="22" patternUnits="userSpaceOnUse" data-fg-dxia8=":0:/src/app/components/MergePdfPage.tsx:26:9:814:166:e:pattern:e"><circle cx="2" cy="2" r="1.3" fill="#0d6efd" opacity="0.16" data-fg-dxia9=":0:/src/app/components/MergePdfPage.tsx:27:11:899:62:e:circle"/></pattern><filter id="mpShadow" x="-20%" y="-20%" width="140%" height="140%" data-fg-dxia10=":0:/src/app/components/MergePdfPage.tsx:29:9:989:349:e:filter:etetete"><feGaussianBlur in="SourceAlpha" stdDeviation="6" data-fg-dxia11=":0:/src/app/components/MergePdfPage.tsx:30:11:1067:52:e:feGaussianBlur"/><feOffset dy="8" data-fg-dxia12=":0:/src/app/components/MergePdfPage.tsx:31:11:1130:19:e:feOffset"/><feComponentTransfer data-fg-dxia13=":0:/src/app/components/MergePdfPage.tsx:32:11:1160:81:e:feComponentTransfer:e"><feFuncA type="linear" slope="0.18" data-fg-dxia14=":0:/src/app/components/MergePdfPage.tsx:32:32:1181:38:e:feFuncA"/></feComponentTransfer><feMerge data-fg-dxia15=":0:/src/app/components/MergePdfPage.tsx:33:11:1252:68:e:feMerge:ee"><feMergeNode data-fg-dxia16=":0:/src/app/components/MergePdfPage.tsx:33:20:1261:15:e:feMergeNode"/><feMergeNode in="SourceGraphic" data-fg-dxia17=":0:/src/app/components/MergePdfPage.tsx:33:35:1276:34:e:feMergeNode"/></feMerge></filter></defs><circle cx="300" cy="250" r="220" fill="url(#mpBg)" data-fg-dxia19=":0:/src/app/components/MergePdfPage.tsx:38:7:1385:54:e:circle"/><rect width="600" height="500" fill="url(#mpDots)" data-fg-dxia20=":0:/src/app/components/MergePdfPage.tsx:39:7:1446:49:e:rect"/><circle cx="80" cy="80" r="36" fill="#ffc107" opacity="0.18" data-fg-dxia22=":0:/src/app/components/MergePdfPage.tsx:42:7:1536:63:e:circle"/><circle cx="540" cy="430" r="44" fill="#dc3545" opacity="0.12" data-fg-dxia23=":0:/src/app/components/MergePdfPage.tsx:43:7:1606:65:e:circle"/><circle cx="510" cy="100" r="10" fill="#198754" opacity="0.55" data-fg-dxia24=":0:/src/app/components/MergePdfPage.tsx:44:7:1678:65:e:circle"/><rect x="60" y="400" width="22" height="22" rx="6" fill="#0d6efd" opacity="0.25" transform="rotate(15 71 411)" data-fg-dxia25=":0:/src/app/components/MergePdfPage.tsx:45:7:1750:113:e:rect"/><g transform="translate(50, 180) rotate(-14 50 65)" filter="url(#mpShadow)" data-fg-dxia102=":0:/src/app/components/MergePdfPage.tsx:199:5:7694:956:e:g:ctetetetetetetx:1"><rect width="100" height="130" rx="10" fill="#ffffff" data-fg-dxia104=":0:/src/app/components/MergePdfPage.tsx:201:7:7817:52:e:rect"/><path d="M 76 0 L 100 0 L 100 24 Z" fill="#f1f3f5" data-fg-dxia105=":0:/src/app/components/MergePdfPage.tsx:202:7:7876:64:e:path"/><path d="M 76 0 L 76 24 L 100 24" stroke="#dee2e6" stroke-width="1.2" fill="none" data-fg-dxia106=":0:/src/app/components/MergePdfPage.tsx:203:7:7947:100:e:path"/><rect width="100" height="34" rx="10" fill="#dc3545" data-fg-dxia107=":0:/src/app/components/MergePdfPage.tsx:204:7:8054:52:e:rect"/><rect y="24" width="100" height="10" fill="#dc3545" data-fg-dxia108=":0:/src/app/components/MergePdfPage.tsx:205:7:8113:51:e:rect"/><text x="14" y="22" font-family="Inter, sans-serif" font-weight="800" font-size="13" fill="#ffffff" letter-spacing="0.5" data-fg-dxia109=":0:/src/app/components/MergePdfPage.tsx:206:7:8171:206:e:text:t">PDF</text><rect x="12" y="50" width="76" height="6" rx="3" fill="#e9ecef" data-fg-dxia112=":0:/src/app/components/MergePdfPage.tsx:218:9:8439:192:e:rect"/><rect x="12" y="64" width="76" height="6" rx="3" fill="#e9ecef" data-fg-dxia112=":0:/src/app/components/MergePdfPage.tsx:218:9:8439:192:e:rect"/><rect x="12" y="78" width="60" height="6" rx="3" fill="#e9ecef" data-fg-dxia112=":0:/src/app/components/MergePdfPage.tsx:218:9:8439:192:e:rect"/></g><g transform="translate(90, 150) rotate(-6 50 65)" filter="url(#mpShadow)" data-fg-dxia102=":0:/src/app/components/MergePdfPage.tsx:199:5:7694:956:e:g:ctetetetetetetx:1"><rect width="100" height="130" rx="10" fill="#ffffff" data-fg-dxia104=":0:/src/app/components/MergePdfPage.tsx:201:7:7817:52:e:rect"/><path d="M 76 0 L 100 0 L 100 24 Z" fill="#f1f3f5" data-fg-dxia105=":0:/src/app/components/MergePdfPage.tsx:202:7:7876:64:e:path"/><path d="M 76 0 L 76 24 L 100 24" stroke="#dee2e6" stroke-width="1.2" fill="none" data-fg-dxia106=":0:/src/app/components/MergePdfPage.tsx:203:7:7947:100:e:path"/><rect width="100" height="34" rx="10" fill="#dc3545" data-fg-dxia107=":0:/src/app/components/MergePdfPage.tsx:204:7:8054:52:e:rect"/><rect y="24" width="100" height="10" fill="#dc3545" data-fg-dxia108=":0:/src/app/components/MergePdfPage.tsx:205:7:8113:51:e:rect"/><text x="14" y="22" font-family="Inter, sans-serif" font-weight="800" font-size="13" fill="#ffffff" letter-spacing="0.5" data-fg-dxia109=":0:/src/app/components/MergePdfPage.tsx:206:7:8171:206:e:text:t">PDF</text><rect x="12" y="50" width="76" height="6" rx="3" fill="#e9ecef" data-fg-dxia112=":0:/src/app/components/MergePdfPage.tsx:218:9:8439:192:e:rect"/><rect x="12" y="64" width="76" height="6" rx="3" fill="#e9ecef" data-fg-dxia112=":0:/src/app/components/MergePdfPage.tsx:218:9:8439:192:e:rect"/><rect x="12" y="78" width="76" height="6" rx="3" fill="#e9ecef" data-fg-dxia112=":0:/src/app/components/MergePdfPage.tsx:218:9:8439:192:e:rect"/><rect x="12" y="92" width="60" height="6" rx="3" fill="#e9ecef" data-fg-dxia112=":0:/src/app/components/MergePdfPage.tsx:218:9:8439:192:e:rect"/></g><g transform="translate(140, 130) rotate(2 50 65)" filter="url(#mpShadow)" data-fg-dxia102=":0:/src/app/components/MergePdfPage.tsx:199:5:7694:956:e:g:ctetetetetetetx:1"><rect width="100" height="130" rx="10" fill="#ffffff" data-fg-dxia104=":0:/src/app/components/MergePdfPage.tsx:201:7:7817:52:e:rect"/><path d="M 76 0 L 100 0 L 100 24 Z" fill="#f1f3f5" data-fg-dxia105=":0:/src/app/components/MergePdfPage.tsx:202:7:7876:64:e:path"/><path d="M 76 0 L 76 24 L 100 24" stroke="#dee2e6" stroke-width="1.2" fill="none" data-fg-dxia106=":0:/src/app/components/MergePdfPage.tsx:203:7:7947:100:e:path"/><rect width="100" height="34" rx="10" fill="#dc3545" data-fg-dxia107=":0:/src/app/components/MergePdfPage.tsx:204:7:8054:52:e:rect"/><rect y="24" width="100" height="10" fill="#dc3545" data-fg-dxia108=":0:/src/app/components/MergePdfPage.tsx:205:7:8113:51:e:rect"/><text x="14" y="22" font-family="Inter, sans-serif" font-weight="800" font-size="13" fill="#ffffff" letter-spacing="0.5" data-fg-dxia109=":0:/src/app/components/MergePdfPage.tsx:206:7:8171:206:e:text:t">PDF</text><rect x="12" y="50" width="76" height="6" rx="3" fill="#e9ecef" data-fg-dxia112=":0:/src/app/components/MergePdfPage.tsx:218:9:8439:192:e:rect"/><rect x="12" y="64" width="76" height="6" rx="3" fill="#e9ecef" data-fg-dxia112=":0:/src/app/components/MergePdfPage.tsx:218:9:8439:192:e:rect"/><rect x="12" y="78" width="76" height="6" rx="3" fill="#e9ecef" data-fg-dxia112=":0:/src/app/components/MergePdfPage.tsx:218:9:8439:192:e:rect"/><rect x="12" y="92" width="76" height="6" rx="3" fill="#e9ecef" data-fg-dxia112=":0:/src/app/components/MergePdfPage.tsx:218:9:8439:192:e:rect"/><rect x="12" y="106" width="60" height="6" rx="3" fill="#e9ecef" data-fg-dxia112=":0:/src/app/components/MergePdfPage.tsx:218:9:8439:192:e:rect"/></g><g transform="translate(190, 170) rotate(10 50 65)" filter="url(#mpShadow)" data-fg-dxia102=":0:/src/app/components/MergePdfPage.tsx:199:5:7694:956:e:g:ctetetetetetetx:1"><rect width="100" height="130" rx="10" fill="#ffffff" data-fg-dxia104=":0:/src/app/components/MergePdfPage.tsx:201:7:7817:52:e:rect"/><path d="M 76 0 L 100 0 L 100 24 Z" fill="#f1f3f5" data-fg-dxia105=":0:/src/app/components/MergePdfPage.tsx:202:7:7876:64:e:path"/><path d="M 76 0 L 76 24 L 100 24" stroke="#dee2e6" stroke-width="1.2" fill="none" data-fg-dxia106=":0:/src/app/components/MergePdfPage.tsx:203:7:7947:100:e:path"/><rect width="100" height="34" rx="10" fill="#dc3545" data-fg-dxia107=":0:/src/app/components/MergePdfPage.tsx:204:7:8054:52:e:rect"/><rect y="24" width="100" height="10" fill="#dc3545" data-fg-dxia108=":0:/src/app/components/MergePdfPage.tsx:205:7:8113:51:e:rect"/><text x="14" y="22" font-family="Inter, sans-serif" font-weight="800" font-size="13" fill="#ffffff" letter-spacing="0.5" data-fg-dxia109=":0:/src/app/components/MergePdfPage.tsx:206:7:8171:206:e:text:t">PDF</text><rect x="12" y="50" width="76" height="6" rx="3" fill="#e9ecef" data-fg-dxia112=":0:/src/app/components/MergePdfPage.tsx:218:9:8439:192:e:rect"/><rect x="12" y="64" width="76" height="6" rx="3" fill="#e9ecef" data-fg-dxia112=":0:/src/app/components/MergePdfPage.tsx:218:9:8439:192:e:rect"/><rect x="12" y="78" width="76" height="6" rx="3" fill="#e9ecef" data-fg-dxia112=":0:/src/app/components/MergePdfPage.tsx:218:9:8439:192:e:rect"/><rect x="12" y="92" width="60" height="6" rx="3" fill="#e9ecef" data-fg-dxia112=":0:/src/app/components/MergePdfPage.tsx:218:9:8439:192:e:rect"/></g><g transform="translate(280, 220)" data-fg-dxia40=":0:/src/app/components/MergePdfPage.tsx:70:7:3017:1423:e:g:xtetxtetxte"><path d="M 0 0 L 60 0 L 44 30 L 44 50 L 16 50 L 16 30 Z" fill="#0d6efd" fill-opacity="0.10" stroke="#0d6efd" stroke-width="2" stroke-linejoin="round" data-fg-dxia42=":0:/src/app/components/MergePdfPage.tsx:72:9:3090:217:e:path"/><g fill="#0d6efd" data-fg-dxia44=":0:/src/app/components/MergePdfPage.tsx:81:9:3338:846:e:g:etete"><circle cx="30" cy="68" r="3" data-fg-dxia45=":0:/src/app/components/MergePdfPage.tsx:82:11:3367:342:e:circle:xtx"/><circle cx="22" cy="76" r="2.2" opacity="0.6" data-fg-dxia50=":0:/src/app/components/MergePdfPage.tsx:90:11:3720:220:e:circle:x"/><circle cx="38" cy="78" r="2" opacity="0.6" data-fg-dxia53=":0:/src/app/components/MergePdfPage.tsx:95:11:3951:220:e:circle:x"/></g><path d="M 30 90 L 30 110 M 22 102 L 30 110 L 38 102" stroke="#0d6efd" stroke-width="3" stroke-linecap="round" stroke-linejoin="round" fill="none" data-fg-dxia57=":0:/src/app/components/MergePdfPage.tsx:102:9:4215:214:e:path"/></g><g transform="translate(380, 110)" filter="url(#mpShadow)" data-fg-dxia59=":0:/src/app/components/MergePdfPage.tsx:113:7:4488:2191:e:g:etxtetetxtetetetxtetxtetxtetxtx"><rect width="170" height="240" rx="16" fill="#ffffff" data-fg-dxia60=":0:/src/app/components/MergePdfPage.tsx:114:9:4556:56:e:rect"/><path d="M 140 0 L 170 0 L 170 30 Z" fill="#f1f3f5" data-fg-dxia62=":0:/src/app/components/MergePdfPage.tsx:116:9:4651:54:e:path"/><path d="M 140 0 L 140 30 L 170 30" stroke="#dee2e6" stroke-width="1.5" fill="none" data-fg-dxia63=":0:/src/app/components/MergePdfPage.tsx:117:9:4714:85:e:path"/><rect width="170" height="56" rx="16" fill="url(#mpResult)" data-fg-dxia65=":0:/src/app/components/MergePdfPage.tsx:119:9:4836:62:e:rect"/><rect y="40" width="140" height="16" fill="url(#mpResult)" data-fg-dxia66=":0:/src/app/components/MergePdfPage.tsx:120:9:4907:61:e:rect"/><text x="22" y="34" font-family="Inter, sans-serif" font-weight="800" font-size="22" fill="#ffffff" letter-spacing="1" data-fg-dxia67=":0:/src/app/components/MergePdfPage.tsx:121:9:4977:224:e:text:t">PDF</text><g transform="translate(98, 18)" data-fg-dxia70=":0:/src/app/components/MergePdfPage.tsx:133:9:5243:323:e:g:ete"><rect width="64" height="22" rx="11" fill="#ffffff" fill-opacity="0.3" data-fg-dxia71=":0:/src/app/components/MergePdfPage.tsx:134:11:5287:72:e:rect"/><text x="32" y="11" text-anchor="middle" dominant-baseline="central" font-family="Inter, sans-serif" font-weight="700" font-size="12" fill="#ffffff" data-fg-dxia72=":0:/src/app/components/MergePdfPage.tsx:135:11:5370:183:e:text:t">12 pages</text></g><g transform="translate(20, 78)" data-fg-dxia75=":0:/src/app/components/MergePdfPage.tsx:140:9:5597:463:e:g:etetetetete"><rect width="130" height="8" rx="4" fill="#e9ecef" data-fg-dxia76=":0:/src/app/components/MergePdfPage.tsx:141:11:5641:53:e:rect"/><rect y="18" width="100" height="6" rx="3" fill="#e9ecef" data-fg-dxia77=":0:/src/app/components/MergePdfPage.tsx:142:11:5705:60:e:rect"/><rect y="32" width="120" height="6" rx="3" fill="#e9ecef" data-fg-dxia78=":0:/src/app/components/MergePdfPage.tsx:143:11:5776:60:e:rect"/><rect y="46" width="80" height="6" rx="3" fill="#e9ecef" data-fg-dxia79=":0:/src/app/components/MergePdfPage.tsx:144:11:5847:59:e:rect"/><rect y="60" width="110" height="6" rx="3" fill="#e9ecef" data-fg-dxia80=":0:/src/app/components/MergePdfPage.tsx:145:11:5917:60:e:rect"/><rect y="74" width="90" height="6" rx="3" fill="#e9ecef" data-fg-dxia81=":0:/src/app/components/MergePdfPage.tsx:146:11:5988:59:e:rect"/></g><g transform="translate(20, 188)" data-fg-dxia83=":0:/src/app/components/MergePdfPage.tsx:149:9:6102:328:e:g:ete"><rect width="100" height="28" rx="14" fill="#dc3545" fill-opacity="0.10" data-fg-dxia84=":0:/src/app/components/MergePdfPage.tsx:150:11:6147:74:e:rect"/><text x="50" y="14" text-anchor="middle" dominant-baseline="central" font-family="Inter, sans-serif" font-weight="700" font-size="12" fill="#dc3545" data-fg-dxia85=":0:/src/app/components/MergePdfPage.tsx:151:11:6232:185:e:text:t">All-in-One</text></g></g><g transform="translate(530, 100)" data-fg-dxia91=":0:/src/app/components/MergePdfPage.tsx:162:7:6713:459:e:g:etetetx"><circle r="26" fill="#ffffff" data-fg-dxia92=":0:/src/app/components/MergePdfPage.tsx:163:9:6757:32:e:circle"/><circle r="22" fill="#198754" data-fg-dxia93=":0:/src/app/components/MergePdfPage.tsx:164:9:6798:32:e:circle"/><path d="M -10 0 L -2 8 L 12 -8" stroke="#ffffff" stroke-width="3.5" stroke-linecap="round" stroke-linejoin="round" fill="none" data-fg-dxia94=":0:/src/app/components/MergePdfPage.tsx:165:9:6839:127:e:path"/></g><g fill="#0d6efd" data-fg-dxia98=":0:/src/app/components/MergePdfPage.tsx:172:7:7203:234:e:g:etete"><g transform="translate(350, 120)" data-fg-dxia113=":0:/src/app/components/MergePdfPage.tsx:234:5:8780:307:e:g:etx:1"><path d="M 0 -8 L 2 -2 L 8 0 L 2 2 L 0 8 L -2 2 L -8 0 L -2 -2 Z" data-fg-dxia114=":0:/src/app/components/MergePdfPage.tsx:235:7:8826:68:e:path"/></g><g transform="translate(555, 310)" data-fg-dxia113=":0:/src/app/components/MergePdfPage.tsx:234:5:8780:307:e:g:etx:1"><path d="M 0 -8 L 2 -2 L 8 0 L 2 2 L 0 8 L -2 2 L -8 0 L -2 -2 Z" data-fg-dxia114=":0:/src/app/components/MergePdfPage.tsx:235:7:8826:68:e:path"/></g><g transform="translate(250, 400)" data-fg-dxia113=":0:/src/app/components/MergePdfPage.tsx:234:5:8780:307:e:g:etx:1"><path d="M 0 -8 L 2 -2 L 8 0 L 2 2 L 0 8 L -2 2 L -8 0 L -2 -2 Z" data-fg-dxia114=":0:/src/app/components/MergePdfPage.tsx:235:7:8826:68:e:path"/></g></g></svg>