<svg xmlns="http://www.w3.org/2000/svg" width="64" height="64" viewBox="0 0 64 64" fill="none"><g stroke="#0d6efd" stroke-width="2.5" stroke-linecap="round" stroke-linejoin="round">
<rect x="10" y="14" width="44" height="36" rx="4" fill="#e7f1ff"/>
<circle cx="22" cy="24" r="3" fill="#ffffff"/>
<path d="M 12 44 L 22 32 L 30 38 L 42 26 L 52 44" fill="#ffffff"/>
<path d="M 6 6 L 14 14 M 14 8 L 14 14 L 8 14"/>
<path d="M 58 6 L 50 14 M 50 8 L 50 14 L 56 14"/>
<path d="M 6 58 L 14 50 M 14 56 L 14 50 L 8 50"/>
<path d="M 58 58 L 50 50 M 50 56 L 50 50 L 56 50"/>
</g></svg>