<svg xmlns="http://www.w3.org/2000/svg" width="64" height="64" viewBox="0 0 64 64" fill="none"><g stroke="#0d6efd" stroke-width="2.5" stroke-linecap="round" stroke-linejoin="round">
<path d="M 8 14 L 22 14 L 28 20 L 28 44 Q 28 46 26 46 L 10 46 Q 8 46 8 44 L 8 16 Q 8 14 10 14 Z" fill="#e7f1ff"/>
<path d="M 22 14 L 22 20 L 28 20" fill="#ffffff"/>
<path d="M 36 14 L 50 14 L 56 20 L 56 44 Q 56 46 54 46 L 38 46 Q 36 46 36 44 L 36 16 Q 36 14 38 14 Z" fill="#e7f1ff"/>
<path d="M 50 14 L 50 20 L 56 20" fill="#ffffff"/>
<path d="M 28 30 L 36 30 M 32 26 L 36 30 L 32 34"/>
<circle cx="32" cy="52" r="7" fill="#0d6efd" stroke="none"/>
<path d="M 32 49 L 32 55 M 29 52 L 35 52" stroke="#ffffff" stroke-width="2"/>
</g></svg>